<svg width="31" height="33" viewBox="0 0 31 33" fill="none" xmlns="http://www.w3.org/2000/svg">
<path d="M15.5 27.9793C11.625 27.9793 8.1995 25.9282 6.2 22.8517C6.2465 19.647 12.4 17.8844 15.5 17.8844C18.6 17.8844 24.7535 19.647 24.8 22.8517C22.8005 25.9282 19.375 27.9793 15.5 27.9793ZM15.5 5.22577C16.7333 5.22577 17.916 5.73223 18.788 6.63373C19.6601 7.53523 20.15 8.75793 20.15 10.0328C20.15 11.3078 19.6601 12.5305 18.788 13.432C17.916 14.3335 16.7333 14.8399 15.5 14.8399C14.2667 14.8399 13.084 14.3335 12.212 13.432C11.3399 12.5305 10.85 11.3078 10.85 10.0328C10.85 8.75793 11.3399 7.53523 12.212 6.63373C13.084 5.73223 14.2667 5.22577 15.5 5.22577ZM15.5 0.418701C13.4645 0.418701 11.449 0.833163 9.56841 1.63842C7.68786 2.44368 5.97915 3.62397 4.53984 5.1119C1.63303 8.1169 0 12.1926 0 16.4423C0 20.692 1.63303 24.7677 4.53984 27.7727C5.97915 29.2606 7.68786 30.4409 9.56841 31.2461C11.449 32.0514 13.4645 32.4659 15.5 32.4659C19.6109 32.4659 23.5533 30.7777 26.4602 27.7727C29.367 24.7677 31 20.692 31 16.4423C31 7.58124 24.025 0.418701 15.5 0.418701Z" fill="black"/>
</svg>
