<svg width="15" height="18" viewBox="0 0 15 18" fill="none" xmlns="http://www.w3.org/2000/svg">
<path d="M14.7888 5.66198C13.9014 1.75775 10.4958 0 7.50424 0C7.50424 0 7.50424 0 7.49579 0C4.51266 0 1.09857 1.7493 0.211249 5.65353C-0.777484 10.0141 1.89294 13.7071 4.30984 16.031C5.20562 16.893 6.35494 17.324 7.50424 17.324C8.65353 17.324 9.80283 16.893 10.6902 16.031C13.1071 13.7071 15.7775 10.0225 14.7888 5.66198ZM7.50424 9.89578C6.03381 9.89578 4.84224 8.70423 4.84224 7.23381C4.84224 5.76339 6.03381 4.57183 7.50424 4.57183C8.97466 4.57183 10.1662 5.76339 10.1662 7.23381C10.1662 8.70423 8.97466 9.89578 7.50424 9.89578Z" fill="#292D32"/>
</svg>
