<svg width="198" height="46" viewBox="0 0 198 46" fill="none" xmlns="http://www.w3.org/2000/svg">
<path fill-rule="evenodd" clip-rule="evenodd" d="M24.7409 22.0457V18.1885H22.0409V17.5328C22.0409 17.1857 22.1276 16.906 22.3012 16.6939C22.4748 16.4818 22.8123 16.3757 23.3137 16.3757C23.5066 16.3757 23.7316 16.395 23.9887 16.4335C24.2459 16.4657 24.4709 16.5107 24.6637 16.5685L25.4351 12.75C25.1266 12.6728 24.6509 12.5828 24.008 12.48C23.3716 12.3771 22.7159 12.3257 22.0409 12.3257C20.9609 12.3257 20.0223 12.525 19.2251 12.9235C18.428 13.3221 17.8109 13.9232 17.3737 14.7268C16.9366 15.5303 16.718 16.5428 16.718 17.7643V18.1885H14.828V22.0457H16.718V33H22.0409V22.0457H24.7409ZM29.081 32.3635C30.2253 32.9678 31.5882 33.27 33.1696 33.27C34.5389 33.27 35.7346 33.0643 36.7567 32.6528C37.7853 32.235 38.6114 31.65 39.2349 30.8978C39.8585 30.1393 40.2539 29.2457 40.421 28.2171H35.561C35.4582 28.4935 35.2974 28.7314 35.0789 28.9307C34.8603 29.1235 34.5967 29.2714 34.2882 29.3743C33.986 29.4771 33.6517 29.5285 33.2853 29.5285C32.7582 29.5285 32.3082 29.4225 31.9353 29.2103C31.5624 28.9982 31.2764 28.7057 31.0771 28.3328C30.8778 27.96 30.7782 27.5357 30.7782 27.06V26.8285H40.421V25.5943C40.421 24.4178 40.2474 23.3603 39.9003 22.4218C39.5532 21.4832 39.0582 20.686 38.4153 20.0303C37.7724 19.3682 36.9978 18.8635 36.0914 18.5164C35.1849 18.1693 34.1724 17.9957 33.0539 17.9957C31.5239 17.9957 30.1964 18.3139 29.0714 18.9503C27.9464 19.5868 27.0753 20.4771 26.4582 21.6214C25.841 22.7657 25.5324 24.1028 25.5324 25.6328C25.5324 27.2271 25.8378 28.5964 26.4485 29.7407C27.0657 30.8785 27.9432 31.7528 29.081 32.3635ZM30.7782 23.8971C30.791 23.4664 30.9035 23.0903 31.1157 22.7689C31.3342 22.4475 31.6235 22.1968 31.9835 22.0168C32.3435 21.8303 32.7389 21.7371 33.1696 21.7371C33.6132 21.7371 34.0085 21.8303 34.3557 22.0168C34.7092 22.1968 34.9889 22.4507 35.1946 22.7785C35.4067 23.1 35.516 23.4728 35.5224 23.8971H30.7782ZM42.3215 18.1885V33H47.6444V24.36C47.6444 23.9293 47.7151 23.5596 47.8565 23.251C48.0044 22.936 48.2101 22.695 48.4737 22.5278C48.7372 22.3607 49.0522 22.2771 49.4187 22.2771C49.9715 22.2771 50.4119 22.4635 50.7397 22.8364C51.0676 23.2028 51.2315 23.7107 51.2315 24.36V33H56.323V24.36C56.323 23.7107 56.4804 23.2028 56.7955 22.8364C57.1169 22.4635 57.5508 22.2771 58.0972 22.2771C58.6501 22.2771 59.0905 22.4635 59.4183 22.8364C59.7462 23.2028 59.9101 23.7107 59.9101 24.36V33H65.233V23.01C65.233 21.4928 64.7894 20.2778 63.9022 19.365C63.0215 18.4521 61.8708 17.9957 60.4501 17.9957C59.3508 17.9957 58.393 18.2721 57.5765 18.825C56.7601 19.3714 56.2265 20.0978 55.9758 21.0043H55.8215C55.6672 20.0978 55.214 19.3714 54.4619 18.825C53.7097 18.2721 52.813 17.9957 51.7715 17.9957C50.743 17.9957 49.8558 18.2657 49.1101 18.8057C48.3644 19.3457 47.8372 20.0785 47.5287 21.0043H47.3744V18.1885H42.3215ZM67.5867 18.1885V33H72.9095V18.1885H67.5867ZM80.6729 33V24.6685C80.6793 24.18 80.7693 23.7621 80.9429 23.415C81.1165 23.0614 81.364 22.7914 81.6854 22.605C82.0133 22.4121 82.3958 22.3157 82.8329 22.3157C83.5015 22.3157 84.0222 22.5246 84.395 22.9425C84.7743 23.3603 84.9608 23.9357 84.9543 24.6685V33H90.2772V23.55C90.2836 22.4764 90.0715 21.5218 89.6408 20.686C89.2165 19.8503 88.6154 19.1946 87.8375 18.7189C87.0661 18.2368 86.1565 17.9957 85.1086 17.9957C84.0222 17.9957 83.0708 18.2625 82.2543 18.796C81.4443 19.3296 80.8786 20.0657 80.5572 21.0043H80.4029V18.1885H75.35V33H80.6729ZM97.9562 33V24.6685C97.9626 24.18 98.0526 23.7621 98.2262 23.415C98.3997 23.0614 98.6473 22.7914 98.9687 22.605C99.2965 22.4121 99.679 22.3157 100.116 22.3157C100.785 22.3157 101.305 22.5246 101.678 22.9425C102.058 23.3603 102.244 23.9357 102.238 24.6685V33H107.56V23.55C107.567 22.4764 107.355 21.5218 106.924 20.686C106.5 19.8503 105.899 19.1946 105.121 18.7189C104.349 18.2368 103.44 17.9957 102.392 17.9957C101.305 17.9957 100.354 18.2625 99.5376 18.796C98.7276 19.3296 98.1619 20.0657 97.8405 21.0043H97.6862V18.1885H92.6333V33H97.9562ZM110.293 29.6346C110.903 30.7789 111.781 31.6725 112.925 32.3153C114.069 32.9518 115.445 33.27 117.052 33.27C118.659 33.27 120.035 32.9518 121.179 32.3153C122.324 31.6725 123.201 30.7789 123.812 29.6346C124.423 28.4839 124.728 27.15 124.728 25.6328C124.728 24.1157 124.423 22.785 123.812 21.6407C123.201 20.49 122.324 19.5964 121.179 18.96C120.035 18.3171 118.659 17.9957 117.052 17.9957C115.445 17.9957 114.069 18.3171 112.925 18.96C111.781 19.5964 110.903 20.49 110.293 21.6407C109.682 22.785 109.377 24.1157 109.377 25.6328C109.377 27.15 109.682 28.4839 110.293 29.6346ZM118.258 28.8825C117.93 29.1846 117.541 29.3357 117.091 29.3357C116.615 29.3357 116.207 29.1846 115.866 28.8825C115.526 28.5803 115.265 28.1496 115.085 27.5903C114.905 27.031 114.815 26.3657 114.815 25.5943C114.815 24.8164 114.905 24.151 115.085 23.5982C115.265 23.0389 115.526 22.6082 115.866 22.306C116.207 22.0039 116.615 21.8528 117.091 21.8528C117.541 21.8528 117.93 22.0039 118.258 22.306C118.586 22.6082 118.839 23.0389 119.019 23.5982C119.199 24.151 119.289 24.8164 119.289 25.5943C119.289 26.3657 119.199 27.031 119.019 27.5903C118.839 28.1496 118.586 28.5803 118.258 28.8825ZM136.117 33L141.093 18.1885H135.5L133.109 27.9857H132.954L130.563 18.1885H124.97L129.946 33H136.117ZM143.584 32.7685C144.31 33.0771 145.146 33.2314 146.091 33.2314C146.734 33.2314 147.322 33.1543 147.856 33C148.396 32.8457 148.875 32.5982 149.293 32.2575C149.717 31.9168 150.077 31.47 150.373 30.9171H150.488V33H155.464V22.8557C155.464 22.1678 155.306 21.5314 154.991 20.9464C154.683 20.355 154.233 19.8407 153.641 19.4035C153.05 18.96 152.333 18.616 151.491 18.3718C150.649 18.121 149.698 17.9957 148.637 17.9957C147.165 17.9957 145.937 18.2271 144.953 18.69C143.97 19.1464 143.221 19.7571 142.706 20.5221C142.199 21.2807 141.913 22.11 141.848 23.01H146.747C146.811 22.5535 147.001 22.216 147.316 21.9975C147.637 21.7725 148.052 21.66 148.56 21.66C149.023 21.66 149.402 21.7628 149.698 21.9685C149.993 22.1743 150.141 22.47 150.141 22.8557V22.8943C150.141 23.1771 150.029 23.4053 149.804 23.5789C149.579 23.746 149.212 23.8778 148.704 23.9743C148.203 24.0643 147.538 24.1414 146.708 24.2057C145.943 24.2635 145.23 24.3889 144.568 24.5818C143.912 24.7746 143.336 25.0543 142.841 25.4207C142.346 25.7871 141.961 26.2596 141.684 26.8382C141.408 27.4103 141.27 28.1014 141.27 28.9114C141.27 29.895 141.475 30.705 141.887 31.3414C142.298 31.9778 142.864 32.4535 143.584 32.7685ZM148.965 29.625C148.611 29.7921 148.232 29.8757 147.827 29.8757C147.377 29.8757 147.007 29.7664 146.718 29.5478C146.429 29.3293 146.284 29.0143 146.284 28.6028C146.284 28.3457 146.345 28.1143 146.467 27.9085C146.596 27.6964 146.789 27.5196 147.046 27.3782C147.309 27.2303 147.647 27.1243 148.058 27.06C148.27 27.0278 148.473 26.9925 148.666 26.9539C148.865 26.9153 149.051 26.8735 149.225 26.8285C149.405 26.7835 149.572 26.7353 149.726 26.6839C149.887 26.6325 150.038 26.5778 150.18 26.52V27.7543C150.18 28.2043 150.067 28.5868 149.842 28.9018C149.617 29.2168 149.325 29.4578 148.965 29.625ZM166.569 22.0457V18.1885H164.023V14.64H158.7V18.1885H156.81V22.0457H158.7V28.7378C158.687 29.7728 158.89 30.6343 159.308 31.3221C159.725 32.01 160.349 32.5146 161.178 32.836C162.008 33.151 163.033 33.2764 164.254 33.2121C164.859 33.18 165.379 33.1125 165.816 33.0096C166.26 32.9068 166.601 32.82 166.839 32.7493L166.067 29.0078C165.964 29.0335 165.804 29.0657 165.585 29.1043C165.373 29.1428 165.186 29.1621 165.026 29.1621C164.794 29.1621 164.605 29.13 164.457 29.0657C164.309 28.995 164.2 28.8921 164.129 28.7571C164.058 28.6157 164.023 28.4421 164.023 28.2364V22.0457H166.569ZM171.319 32.3635C172.463 32.9678 173.826 33.27 175.407 33.27C176.776 33.27 177.972 33.0643 178.994 32.6528C180.023 32.235 180.849 31.65 181.472 30.8978C182.096 30.1393 182.491 29.2457 182.659 28.2171H177.799C177.696 28.4935 177.535 28.7314 177.316 28.9307C177.098 29.1235 176.834 29.2714 176.526 29.3743C176.224 29.4771 175.889 29.5285 175.523 29.5285C174.996 29.5285 174.546 29.4225 174.173 29.2103C173.8 28.9982 173.514 28.7057 173.315 28.3328C173.115 27.96 173.016 27.5357 173.016 27.06V26.8285H182.659V25.5943C182.659 24.4178 182.485 23.3603 182.138 22.4218C181.791 21.4832 181.296 20.686 180.653 20.0303C180.01 19.3682 179.235 18.8635 178.329 18.5164C177.422 18.1693 176.41 17.9957 175.291 17.9957C173.761 17.9957 172.434 18.3139 171.309 18.9503C170.184 19.5868 169.313 20.4771 168.696 21.6214C168.079 22.7657 167.77 24.1028 167.77 25.6328C167.77 27.2271 168.075 28.5964 168.686 29.7407C169.303 30.8785 170.181 31.7528 171.319 32.3635ZM173.016 23.8971C173.029 23.4664 173.141 23.0903 173.353 22.7689C173.572 22.4475 173.861 22.1968 174.221 22.0168C174.581 21.8303 174.976 21.7371 175.407 21.7371C175.851 21.7371 176.246 21.8303 176.593 22.0168C176.947 22.1968 177.226 22.4507 177.432 22.7785C177.644 23.1 177.754 23.4728 177.76 23.8971H173.016Z" fill="#1E1E1E"/>
<path d="M72.4114 12.4458C72.4114 13.6955 71.3983 14.7086 70.1485 14.7086C68.8988 14.7086 67.8857 13.6955 67.8857 12.4458C67.8857 11.196 68.8988 10.1829 70.1485 10.1829C71.3983 10.1829 72.4114 11.196 72.4114 12.4458Z" fill="#D5A0FF" stroke="#1E1E1E" stroke-width="1.13143"/>
</svg>
