<svg width="203" height="203" viewBox="0 0 203 203" fill="none" xmlns="http://www.w3.org/2000/svg">
<path opacity="0.4" d="M101.46 202.92C157.494 202.92 202.92 157.495 202.92 101.46C202.92 45.4252 157.494 0 101.46 0C45.4252 0 0 45.4252 0 101.46C0 157.495 45.4252 202.92 101.46 202.92Z" fill="#D5A0FF"/>
<path d="M101.46 50.0191C80.4578 50.0191 63.4125 67.0644 63.4125 88.0663C63.4125 108.663 79.5447 125.404 100.953 126.012H101.866H102.576H102.779C123.274 125.302 139.406 108.663 139.508 88.0663C139.508 67.0644 122.462 50.0191 101.46 50.0191Z" fill="#D5A0FF"/>
<path d="M170.257 176.033C152.197 192.673 128.05 202.92 101.467 202.92C74.8847 202.92 50.7372 192.673 32.6773 176.033C35.1123 166.8 41.7073 158.379 51.346 151.886C79.0446 133.42 124.093 133.42 151.589 151.886C161.329 158.379 167.822 166.8 170.257 176.033Z" fill="#D5A0FF"/>
</svg>
