<svg width="161" height="161" viewBox="0 0 161 161" fill="none" xmlns="http://www.w3.org/2000/svg">
<rect width="161" height="161" rx="30" fill="#FEFEFE"/>
<path d="M85.0298 61.5455V78.5909H41.223V61.5455H85.0298ZM49.5753 127V59.6705C49.5753 54.2727 50.5412 49.7983 52.473 46.2472C54.4048 42.696 57.1321 40.0398 60.6548 38.2784C64.1776 36.517 68.3253 35.6364 73.098 35.6364C76.081 35.6364 78.9787 35.8636 81.7912 36.3182C84.6321 36.7727 86.7344 37.1705 88.098 37.5114L84.6889 54.3864C83.8366 54.1307 82.8423 53.9318 81.706 53.7898C80.5696 53.6193 79.5753 53.5341 78.723 53.5341C76.5071 53.5341 75.0156 54.0028 74.2486 54.9403C73.4815 55.8778 73.098 57.1136 73.098 58.6477V127H49.5753Z" fill="#1E1E1E"/>
<path d="M121 44C121 51.1797 115.18 57 108 57C100.82 57 95.0001 51.1797 95.0001 44C95.0001 36.8203 100.82 31 108 31C115.18 31 121 36.8203 121 44Z" fill="#D5A0FF" stroke="#1E1E1E" stroke-width="4"/>
</svg>
